<svg xmlns="http://www.w3.org/2000/svg" xmlns:xlink="http://www.w3.org/1999/xlink" width="1080" zoomAndPan="magnify" viewBox="0 0 810 809.999993" height="1080" preserveAspectRatio="xMidYMid meet" version="1.0"><defs><clipPath id="e54ab6da7a"><path d="M 55 41.464844 L 783.816406 41.464844 L 783.816406 768.214844 L 55 768.214844 Z M 55 41.464844 " clip-rule="nonzero"/></clipPath><clipPath id="75f725778f"><path d="M 26.316406 552 L 275 552 L 275 721 L 26.316406 721 Z M 26.316406 552 " clip-rule="nonzero"/></clipPath></defs><path fill="#2e2e4d" d="M 469.875 596.714844 C 499.117188 595.390625 527.148438 592.894531 553.664062 589.1875 C 527.03125 689.660156 479.367188 756.652344 424.933594 756.652344 C 416.761719 756.652344 408.667969 755.140625 400.835938 752.191406 C 429.738281 726.011719 454.25 670.027344 469.875 596.714844 Z M 476.910156 250.886719 C 469.875 250.394531 462.800781 249.976562 455.574219 249.636719 C 443.808594 249.105469 431.78125 248.878906 419.675781 248.878906 C 407.570312 248.878906 395.578125 249.105469 383.664062 249.636719 C 372.199219 250.167969 360.851562 250.960938 349.617188 251.832031 C 349.390625 251.945312 349.085938 251.945312 348.746094 251.945312 C 327.601562 253.796875 307.058594 256.519531 287.425781 259.925781 C 282.207031 287.199219 278.5 316.214844 276.304688 346.328125 C 320.261719 339.78125 368.796875 336.1875 419.636719 336.1875 C 442.484375 336.1875 464.84375 336.945312 486.554688 338.34375 C 487.957031 360.019531 488.710938 382.378906 488.710938 405.261719 C 488.710938 456.21875 485.117188 504.640625 478.574219 548.597656 C 508.6875 546.402344 537.699219 542.695312 564.976562 537.476562 C 566.488281 528.433594 567.925781 519.164062 569.210938 509.785156 C 570.613281 498.777344 571.9375 487.539062 572.917969 476.078125 C 572.917969 475.851562 572.917969 475.550781 573.03125 475.207031 C 573.902344 464.085938 574.660156 452.738281 575.226562 441.164062 C 575.757812 429.398438 575.984375 417.367188 575.984375 405.261719 C 575.984375 393.160156 575.757812 381.167969 575.226562 369.25 C 574.886719 362.140625 574.433594 355.066406 573.976562 348.027344 C 665.484375 362.859375 736.1875 390.433594 766.675781 424.101562 C 769.628906 416.234375 771.140625 408.175781 771.140625 400.003906 C 771.140625 338.457031 685.574219 285.613281 562.933594 262.007812 C 539.363281 139.289062 486.40625 53.761719 424.894531 53.761719 C 416.726562 53.761719 408.742188 55.273438 400.914062 58.222656 C 434.542969 88.828125 462.082031 159.453125 476.910156 250.886719 Z M 476.910156 250.886719 " fill-opacity="1" fill-rule="nonzero"/><g clip-path="url(#e54ab6da7a)"><path fill="#2e2e4d" d="M 72.671875 423.949219 C 69.722656 416.082031 68.210938 408.136719 68.210938 399.96875 C 68.210938 345.644531 135.089844 297.867188 235.449219 271.351562 C 231.96875 297.753906 229.433594 325.785156 228.148438 355.027344 C 154.914062 370.574219 99.078125 395.011719 72.671875 423.949219 Z M 337.324219 714.097656 L 383.359375 720.753906 L 295.976562 627.167969 L 289.960938 620.734375 L 270.667969 600.117188 L 270.78125 650.507812 L 271.121094 761.003906 L 297.640625 722.265625 L 300.25 719.429688 C 318.785156 750.867188 340.273438 768.722656 363.3125 768.722656 L 419.714844 768.722656 C 409.007812 768.722656 398.566406 766.222656 388.390625 761.421875 C 369.929688 752.71875 352.71875 736.492188 337.324219 714.097656 Z M 55.992188 461.550781 L 55.992188 405.1875 C 55.992188 415.894531 58.488281 426.335938 63.292969 436.511719 C 74.414062 460.078125 97.867188 481.675781 130.703125 499.988281 L 123.175781 443.46875 L 213.8125 529.339844 L 216.535156 532.066406 L 220.695312 536 L 242.75 556.84375 L 78.007812 556.84375 L 115.191406 530.210938 C 77.816406 510.425781 55.992188 486.898438 55.992188 461.550781 Z M 783.285156 405.1875 L 783.285156 461.589844 C 783.285156 530.855469 620.507812 587.03125 419.675781 587.03125 C 415.855469 587.03125 412.148438 587.03125 408.328125 586.917969 L 408.855469 588.242188 L 431.96875 641.351562 L 321.132812 583.625 L 318.179688 582 L 317.726562 581.773438 L 285.875 565.203125 L 312.394531 555.480469 L 314.246094 554.839844 L 320.679688 552.453125 L 441.011719 508.800781 L 416.914062 548.519531 L 409.046875 561.382812 C 412.527344 561.496094 416.042969 561.496094 419.636719 561.496094 C 595.617188 561.496094 742.203125 507.703125 775.90625 436.472656 C 780.789062 426.335938 783.285156 415.855469 783.285156 405.1875 Z M 180.902344 371.898438 L 237.832031 398.191406 C 239.15625 200.535156 294.765625 41.464844 363.273438 41.464844 L 419.675781 41.464844 C 408.96875 41.464844 398.53125 43.960938 388.351562 48.765625 C 318.523438 81.828125 265.410156 223.535156 263.441406 394.898438 L 313.640625 365.996094 L 267.300781 486.101562 L 254.328125 519.695312 L 241.765625 494.386719 Z M 180.902344 371.898438 " fill-opacity="1" fill-rule="nonzero"/></g><g clip-path="url(#75f725778f)"><path fill="#b40404" d="M 91.097656 614.265625 L 91.097656 617.824219 C 91.097656 632.539062 86.40625 641.578125 75.964844 645.890625 L 75.964844 646.269531 C 86.785156 650.960938 91.097656 660.984375 91.097656 674.945312 L 91.097656 685.726562 C 91.097656 707.703125 80.085938 720.300781 58.902344 720.300781 C 37.683594 720.300781 26.710938 707.742188 26.710938 685.726562 L 26.710938 674.339844 L 47.140625 674.339844 L 47.140625 687.085938 C 47.140625 696.921875 51.453125 700.628906 58.335938 700.628906 C 65.222656 700.628906 69.535156 697.300781 69.535156 685.121094 L 69.535156 674.339844 C 69.535156 661.589844 65.222656 656.863281 55.386719 656.863281 L 48.121094 656.863281 L 48.121094 637.230469 L 56.558594 637.230469 C 64.617188 637.230469 69.535156 633.671875 69.535156 622.703125 L 69.535156 615.0625 C 69.535156 602.691406 65.222656 599.363281 58.335938 599.363281 C 51.453125 599.363281 47.140625 603.070312 47.140625 612.90625 L 47.140625 621.757812 L 26.710938 621.757812 L 26.710938 614.304688 C 26.710938 592.328125 37.71875 579.765625 58.902344 579.765625 C 80.125 579.691406 91.097656 592.25 91.097656 614.265625 Z M 169.894531 660.570312 L 169.894531 685.6875 C 169.894531 707.664062 158.316406 720.261719 137.09375 720.261719 C 115.910156 720.261719 104.296875 707.703125 104.296875 685.6875 L 104.296875 615.402344 C 104.296875 592.25 114.890625 579.691406 137.285156 579.691406 C 158.46875 579.691406 169.476562 592.25 169.476562 614.230469 L 169.476562 617.785156 L 149.050781 617.785156 L 149.050781 612.867188 C 149.050781 603.03125 144.738281 599.324219 137.851562 599.324219 C 130.210938 599.324219 125.898438 603.03125 125.898438 616.195312 L 125.898438 641.125 L 126.277344 641.125 C 129.984375 633.292969 136.300781 629.171875 145.910156 629.171875 C 161.835938 629.171875 169.894531 640.367188 169.894531 660.570312 Z M 148.292969 662.347656 C 148.292969 652.511719 143.980469 648.804688 137.09375 648.804688 C 130.210938 648.804688 125.898438 652.511719 125.898438 662.347656 L 125.898438 687.085938 C 125.898438 696.921875 130.210938 700.441406 137.09375 700.441406 C 143.980469 700.441406 148.292969 696.882812 148.292969 687.085938 Z M 247.253906 614.265625 L 247.253906 685.726562 C 247.253906 707.703125 235.675781 720.300781 214.457031 720.300781 C 193.234375 720.300781 181.65625 707.742188 181.65625 685.726562 L 181.65625 614.265625 C 181.65625 592.289062 193.234375 579.730469 214.457031 579.730469 C 235.675781 579.691406 247.253906 592.25 247.253906 614.265625 Z M 225.652344 612.867188 C 225.652344 603.03125 221.339844 599.324219 214.492188 599.324219 C 207.609375 599.324219 203.296875 603.03125 203.296875 612.867188 L 203.296875 687.050781 C 203.296875 696.882812 207.609375 700.589844 214.492188 700.589844 C 221.339844 700.589844 225.652344 696.882812 225.652344 687.050781 Z M 260.71875 552.832031 C 253.304688 552.832031 247.289062 558.847656 247.289062 566.261719 C 247.289062 573.675781 253.304688 579.691406 260.71875 579.691406 C 268.132812 579.691406 274.148438 573.675781 274.148438 566.261719 C 274.148438 558.847656 268.132812 552.832031 260.71875 552.832031 Z M 260.71875 552.832031 " fill-opacity="1" fill-rule="nonzero"/></g></svg>